<svg xmlns="http://www.w3.org/2000/svg"
    fill="#100924" 
    stroke="#32495C"
    stroke-width="7"
    viewBox="12.6602 -144 6043 869">
  <path d="M 15 725 C 19 749 -3 119 1 1 C 52.3333 0.6667 122 1 122 0 C 254.6667 -37.3333 514 -28 514 -28 C 662 -31 798.6667 -36.6667 941 -41 C 944 -41 1907 -38 2061 0 C 2061 0 2169 0 2169 0 C 2207.6667 -0.6667 2246.3333 -1.3333 2285 -2 C 2324.3333 -1.6667 2367 -24 2412 -18 C 2451 -10.3333 2490 -2.6667 2545 -29 C 2699 -44 2754 -36 2754 -39 C 2831 -38 2943 12 3069 -29 C 3089 -49 3301 -34 3308 -26 C 3322 -25 3647 13 3654 18 C 3662 14 4129 -20 4149 -15 C 4378 -80 4421 -3 4426 -4 C 4558 27 4698 37 4838 47 C 4890 49 5227 119 5493 -22 C 5696.3333 -16.3333 5736 -218 6103 -5 C 6183.6667 2.6667 6264.3333 10.3333 6345 18 C 6566.3333 2.3333 6665 -53 22004 -53 C 22495 651 22463 1387 20367 1240" fill="#"/>
</svg>


