<svg
 id="Layer_1" 
 data-name="Layer 1"
 width="200"
  xmlns="http://www.w3.org/2000/svg" xmlns:xlink="http://www.w3.org/1999/xlink" viewBox="0 0 1600 900"><defs><style>.cls-1{fill:url(#linear-gradient);}.cls-2{fill:red;}.cls-3{fill:#00bc4c;}.cls-4{fill:#fcee21;}.cls-5{fill:url(#linear-gradient-2);}.cls-6{fill:#0e0a3f;}.cls-7{fill:none;stroke-width:6px;}.cls-10,.cls-7{stroke:#000;}.cls-10,.cls-13,.cls-7{stroke-miterlimit:10;}.cls-8{font-size:76.64px;}.cls-11,.cls-8,.cls-9{font-family:MyriadPro-Regular, Myriad Pro;}.cls-9{font-size:76.64px;}.cls-10,.cls-13{fill:#382b22;stroke-width:3px;}.cls-11{font-size:89.21px;}.cls-11,.cls-14{fill:#fff;}.cls-12{letter-spacing:-0.02em;}.cls-13{stroke:#fff;}</style><linearGradient id="linear-gradient" x1="910.38" y1="244.82" x2="1110.69" y2="432.2" gradientUnits="userSpaceOnUse"><stop offset="0.5" stop-color="#fcee21"/><stop offset="0.54" stop-color="#fce920"/><stop offset="0.59" stop-color="#fcd91e"/><stop offset="0.65" stop-color="#fdbf1a"/><stop offset="0.71" stop-color="#fd9b15"/><stop offset="0.78" stop-color="#fe6c0f"/><stop offset="0.84" stop-color="#fe3407"/><stop offset="0.9" stop-color="red"/></linearGradient><linearGradient id="linear-gradient-2" x1="324.58" y1="665.92" x2="1106.5" y2="-41.04" gradientUnits="userSpaceOnUse"><stop offset="0.27" stop-color="#00bc4c"/><stop offset="0.3" stop-color="#40c941"/><stop offset="0.36" stop-color="#c6e32a"/><stop offset="0.39" stop-color="#fcee21"/></linearGradient></defs><path class="cls-1" d="M1386.34,343.74l-1.73,1L1030,553.71,934.59,610l-.31-.16-96.42-51.16-2.09-1.11,31-113.74L955.3,118.66l21.64-79.44a458.28,458.28,0,0,1,55.17,13l.11,0c211.6,63.7,337.49,263.81,352.58,288.91C1385.83,342.84,1386.34,343.74,1386.34,343.74Z"/><path class="cls-2" d="M1476.08,681.52l-339.28,1-67.17.21-259.07.79,1.68-1,122-72.77L1029.56,553l353.52-210.8,1.72-1c1,1.69,1.54,2.59,1.54,2.59l-1.73,1A665.68,665.68,0,0,1,1476.08,681.52Z"/><path class="cls-3" d="M802.49,682.56l-665.52-2s-24.2-78.65,82.68-322.68Z"/><path class="cls-4" d="M457.65,110.19,737.9,573.43l66.61,110.13L669.39,364.92,592.75,46.28s207-62.32,384.81-11L837.88,558.55l-33.37,125Z"/><path class="cls-5" d="M792.41,677.51,217.64,358.87S366.88,96.69,617,40.23L804.51,681.55Z"/><path class="cls-6" d="M1069.71,688.61H571.58c0-3.76.08-7.5.28-11.23A248.77,248.77,0,0,1,819.94,439.54h.7a249.4,249.4,0,0,1,61.15,7.55,249.14,249.14,0,0,1,109.14,59.75,251.19,251.19,0,0,1,40.39,48.86,247.15,247.15,0,0,1,38.11,121.68Q1069.71,683,1069.71,688.61Z"/><path class="cls-7" d="M1476.08,681.52v1H135q0-7.24.15-14.45a675,675,0,0,1,5.11-69.82,664.17,664.17,0,0,1,78-239.11q4.89-8.82,10-17.49A672.22,672.22,0,0,1,593,47.32q8.88-3,17.87-5.67,2.42-.74,4.83-1.44A671.52,671.52,0,0,1,804.51,13h1a676.75,676.75,0,0,1,100.69,7.5,666,666,0,0,1,69.86,14.36q28.53,7.45,56,17.34l.11,0a672.38,672.38,0,0,1,350.86,289.93l1.53,2.59A665.68,665.68,0,0,1,1476.08,681.52Z"/><text class="cls-8" transform="translate(217.68 637.49) rotate(-80.65)">0</text><text class="cls-9" transform="translate(238.81 507.34) rotate(-58.21)">20</text><text class="cls-8" transform="translate(309.45 369.63) rotate(-51.49)">40</text><text class="cls-9" transform="translate(401.85 248.17) rotate(-34.45)">60</text><text class="cls-8" transform="matrix(0.93, -0.36, 0.36, 0.93, 526.39, 155.54)">80</text><text class="cls-9" transform="translate(657.17 105.19) rotate(-6.64)">100</text><text class="cls-8" transform="translate(820.16 91.36) rotate(7.91)">120</text><text class="cls-9" transform="translate(967.88 114.13) rotate(23.97)">140</text><text class="cls-9" transform="matrix(0.8, 0.6, -0.6, 0.8, 1109.45, 174.51)">160</text><text class="cls-9" transform="translate(1232.44 273.41) rotate(51)">180</text><text class="cls-8" transform="translate(1333.84 395.35) rotate(71.65)">200</text><text class="cls-9" transform="translate(1373.46 544.29) rotate(81.94)">220</text><path class="cls-10" d="M129.5,709.65V891.5H1481.4V709.65Zm940.15,154.4H572.13V733.66h497.52Z"/><text class="cls-11" transform="translate(441.34 821.52)"><tspan class="cls-12">F</tspan><tspan x="41.84" y="0">M</tspan></text><circle class="cls-2" cx="1122.83" cy="797.14" r="20.59"/><rect class="cls-13" x="162.1" y="731.95" width="130.39" height="130.39" rx="12.27"/><rect class="cls-13" x="1321.84" y="735.38" width="130.39" height="130.39" rx="12.27"/><polygon class="cls-14" points="220.91 778.61 187.83 798.86 220.91 819.11 220.91 807.29 270.18 807.29 270.18 790.42 220.91 790.42 220.91 778.61"/><polygon class="cls-14" points="1395.13 822.54 1428.21 802.29 1395.13 782.04 1395.13 793.85 1345.86 793.85 1345.86 810.73 1395.13 810.73 1395.13 822.54"/></svg>