<svg id="Layer_1" data-name="Layer 1"
width="400"
 xmlns="http://www.w3.org/2000/svg" 
 xmlns:xlink="http://www.w3.org/1999/xlink"
  viewBox="0 0 550 300"><defs><style>.cls-1{fill:#a51c1c;}.cls-1,.cls-10,.cls-11,.cls-2,.cls-3,.cls-4,.cls-5,.cls-6,.cls-7,.cls-8,.cls-9{stroke:#000;stroke-miterlimit:10;}.cls-1,.cls-5,.cls-9{stroke-width:4px;}.cls-3,.cls-5,.cls-6,.cls-8{fill:none;}.cls-10,.cls-3{stroke-width:10px;}.cls-4{stroke-width:2px;}.cls-6{stroke-width:12px;}.cls-7{fill:#2ed2ff;opacity:0.5;}.cls-8{stroke-width:6px;}.cls-9{fill:#f4d600;}.cls-10{fill:#e2a203;}.cls-11{stroke-width:5px;fill:url(#linear-gradient);}</style><linearGradient id="linear-gradient" x1="336.88" y1="120.68" x2="366.24" y2="120.68" gradientUnits="userSpaceOnUse"><stop offset="0"/><stop offset="0.22" stop-color="#030200"/><stop offset="0.36" stop-color="#0b0800"/><stop offset="0.48" stop-color="#1a1300"/><stop offset="0.59" stop-color="#2f2201"/><stop offset="0.68" stop-color="#4a3501"/><stop offset="0.78" stop-color="#6c4d01"/><stop offset="0.86" stop-color="#936a02"/><stop offset="0.95" stop-color="#c08a03"/><stop offset="1" stop-color="#e2a203"/></linearGradient></defs><path class="cls-1" d="M18.5,206.55a13.28,13.28,0,0,0,2.52.24c11.28,0,20.42-14.27,20.42-31.87S32.3,143.05,21,143.05a13.26,13.26,0,0,0-3.27.41"/><rect class="cls-2" x="23.53" y="115.47" width="101.35" height="26.5" rx="9.54"/><line class="cls-3" x1="307.37" y1="117.85" x2="305.22" y2="117.85"/><path class="cls-2" d="M323.63,124.42s1.27-13.21,20.24-15.85S323.63,124.42,323.63,124.42Z"/><ellipse class="cls-4" cx="331.74" cy="127.57" rx="10.72" ry="8.23" transform="translate(86.99 385.3) rotate(-67.52)"/><line class="cls-5" x1="309.3" y1="112.23" x2="309.3" y2="103.3"/><path d="M336.34,135.7a66.38,66.38,0,0,1-8.33,4.69c-.3.14-.34-.12-.42-.31s-.26-.24-.39-.35l-.87-.6-1.73-1.19-6.92-4.77-6.92-4.76L307.3,126a81.26,81.26,0,0,1,1.36-9.38,82.82,82.82,0,0,1,8.28-4.62l3.46,2.39,6.92,4.76,6.92,4.77,1.73,1.19.87.59c.15.09.26.25.47.25s.46-.06.44.28A67.19,67.19,0,0,1,336.34,135.7Z"/><ellipse class="cls-6" cx="309.41" cy="118.28" rx="5.47" ry="16.42"/><ellipse class="cls-2" cx="309.3" cy="117.64" rx="2.36" ry="5.82"/><line class="cls-5" x1="309.3" y1="131.21" x2="309.3" y2="122.28"/><line class="cls-5" x1="317.72" y1="132.66" x2="317.72" y2="124.07"/><rect class="cls-2" x="120.58" y="68.92" width="16.47" height="60.16" rx="5.93"/><rect class="cls-2" x="213.69" y="69.81" width="16.47" height="60.16" rx="5.93"/><path class="cls-7" d="M353.7,99.85v35.39l-16.05-.61-2.41-.1-10.43-.4-12.7-.49-4.13-.15-103.61-4V51.08H282C296.26,59.5,327.8,81.46,353.7,99.85Z"/><path class="cls-8" d="M357.47,126.57H341a8,8,0,0,1-4.14-7.3,7.29,7.29,0,0,1,4.38-7c2.62-1.28,6.2-1.74,10.16-1.77h1.18l8.12,5.44A5.83,5.83,0,0,1,357.47,126.57Z"/><line class="cls-3" x1="16.4" y1="174.77" x2="17.44" y2="197.12"/><path class="cls-9" d="M537.6,205.36a26.07,26.07,0,0,1-9.49,1.79c-16.61,0-30.08-15.79-30.08-35.28a38.14,38.14,0,0,1,9.83-26.08c2.13,1,4.19,2,6.17,3.14a1.58,1.58,0,0,1,.12-.15c.08-.12.18-.24.27-.36S527,155.18,534.52,167l.05.08A32.42,32.42,0,0,1,539.9,186h0A59,59,0,0,1,537.6,205.36Z"/><path class="cls-7" d="M184.18,47.12v88l-72.53-2.95-36.4-1.47-1.32-.06-44.48-1.8-11.79-.48C25.21,85.73,47.89,47,105.37,47.07,136,47.11,162.11,47.13,184.18,47.12Z"/><path class="cls-10" d="M539.9,186a31.7,31.7,0,0,1-1.17,7.16s-51.14-9.52-24.7-44.25c-2-1.12-4-2.16-6.17-3.14-36.91-17-93.41-14.47-101.11-14a15.79,15.79,0,0,1-1.82,0c-9.69-.68-15.05-5.55-25-12.71-7.09-5.12-16.57-11.91-26.95-19.28C327.09,81.39,295.56,59.43,281.31,51c-1-.58-1.88-1.1-2.69-1.54a19.26,19.26,0,0,0-9.36-2.37c-16.74.13-42.22.19-78.13.2-22.72,0-49.61,0-81.11,0-59.16-.08-82.5,39.05-90.27,82.16-.62,3.4-1.13,6.81-1.56,10.24a251.86,251.86,0,0,0-1.74,35.68c.13-7.26.54-14.7,1.32-22.09a9.37,9.37,0,0,1,1.76-.17c7.94,0,14.39,9.86,14.39,22s-6.45,22-14.39,22a10,10,0,0,1-2-.2A334.1,334.1,0,0,0,24.06,241l27.33.17A3.71,3.71,0,0,0,55.08,238c1.84-12.07,11.57-54.32,57.62-53.4,45.42.91,50.64,40.72,51.18,53a3.72,3.72,0,0,0,3.72,3.57L400.39,241a3.34,3.34,0,0,0,3.34-3.21c.5-13.55,5.47-52.85,54-54.8,45.29-1.83,52.4,41.24,53.51,54.31a2,2,0,0,0,1.9,1.8l6.2.22a3.44,3.44,0,0,0,3-1.61c7.67-12.09,12.58-22.82,15.22-32.34A59,59,0,0,0,539.9,186Zm-352-68.46a9,9,0,0,1-9,9H27.83s11-67.68,76-72.69h75.06a9,9,0,0,1,9,9Zm163.91-7.1h-.4c-1.14,0-2.25.05-3.31.14a19.59,19.59,0,0,0-6.85,1.63,7.18,7.18,0,0,0-4.25,5.42c0,.2-.06.4-.08.6s-.05.67-.05,1a7.94,7.94,0,0,0,3.49,6.87,7.31,7.31,0,0,0,.65.43H216.46a8.13,8.13,0,0,1-8.14-8.14V62a8.13,8.13,0,0,1,8.14-8.14h44a25.47,25.47,0,0,1,14.19,4.31l77.92,52.27Z"/><path class="cls-11" d="M366.24,119.91v.39c0,5.32-4.61,9.6-10.85,9.6h-3.57a22.53,22.53,0,0,1-10.15-2c-.22-.11-.44-.23-.65-.36a8,8,0,0,1-4.14-7.3,7.29,7.29,0,0,1,4.38-7c2.62-1.28,6.2-1.74,10.16-1.77h2.2C361.73,111.84,365.33,113,366.24,119.91Z"/><rect class="cls-2" x="172.51" y="218.25" width="223.46" height="9.82"/><rect class="cls-8" x="220.67" y="144.66" width="29.01" height="9.67" rx="3.48"/><rect class="cls-8" x="50.03" y="139.46" width="29.01" height="20.05" rx="7.22"/><circle class="cls-2" cx="59.16" cy="149.31" r="2.69"/><path d="M394.36,213.42a48.05,48.05,0,0,1,3.1-10.58,59.06,59.06,0,0,1,5.18-9.82,60,60,0,0,1,6.95-8.73,58,58,0,0,1,8.57-7.22A56,56,0,0,1,428,171.7c1.7-.77,3.49-1.32,5.24-1.95l2.68-.77,1.35-.36,1.36-.29a68.18,68.18,0,0,1,22-1.11,102,102,0,0,0-21.43,3.38l-1.29.36-1.27.43-2.55.84c-1.66.68-3.35,1.26-4.94,2.07s-3.2,1.56-4.77,2.4-3.07,1.8-4.51,2.85a63.28,63.28,0,0,0-15.3,14.81,72.13,72.13,0,0,0-5.76,9.11A66.23,66.23,0,0,0,394.36,213.42Z"/><path d="M176.62,213.42a67.21,67.21,0,0,0-4.42-9.95,72.2,72.2,0,0,0-5.77-9.11,63.28,63.28,0,0,0-15.3-14.81c-1.44-1.05-3-1.93-4.51-2.85s-3.13-1.69-4.77-2.4-3.28-1.39-4.94-2.07l-2.54-.84-1.28-.43-1.29-.36a101.9,101.9,0,0,0-21.43-3.38,68.18,68.18,0,0,1,22,1.11l1.36.29,1.35.36,2.68.77c1.75.63,3.54,1.18,5.24,1.95a56.13,56.13,0,0,1,9.83,5.37,57.92,57.92,0,0,1,8.56,7.22,59.31,59.31,0,0,1,7,8.73,58.33,58.33,0,0,1,5.18,9.82A47.52,47.52,0,0,1,176.62,213.42Z"/><path 
class="cls-3" d="M539.6,187.11s6.06-21.5-25.81-38.33"/></svg>