<svg
width="125"
 id="Layer_1" 
 data-name="Layer 1" 
 xmlns="http://www.w3.org/2000/svg" xmlns:xlink="http://www.w3.org/1999/xlink" viewBox="0 0 400 400"><defs><style>.cls-1{fill:url(#radial-gradient);}.cls-2{fill:#eaeaea;}.cls-3{fill:none;stroke:#000;stroke-miterlimit:10;stroke-width:1.5px;}</style><radialGradient id="radial-gradient" cx="210.45" cy="193.11" r="170.33" gradientTransform="translate(1.24 10.45) scale(0.97 0.97)" gradientUnits="userSpaceOnUse"><stop offset="0" stop-color="#4d4d4d"/><stop offset="0.47" stop-color="#4b4b4b"/><stop offset="0.64" stop-color="#444"/><stop offset="0.77" stop-color="#393939"/><stop offset="0.86" stop-color="#282828"/><stop offset="0.95" stop-color="#121212"/><stop offset="1"/></radialGradient></defs><ellipse class="cls-1" cx="204.48" cy="197.31" rx="164.49" ry="164.81"/><path d="M204.48,33a164.14,164.14,0,0,1,164,164.31A164,164,0,1,1,88.52,81.12,162.79,162.79,0,0,1,204.48,33m0-1c-91.12,0-165,74-165,165.31s73.87,165.31,165,165.31,165-74,165-165.31S295.6,32,204.48,32Z"/><ellipse class="cls-2" cx="204.48" cy="197.31" rx="119.48" ry="119.73"/><path d="M204.48,81.08a116.28,116.28,0,0,1,82,198.42,116.11,116.11,0,0,1-164-164.38,115.11,115.11,0,0,1,82-34m0-7c-67.92,0-123,55.17-123,123.23s55.07,123.22,123,123.22,123-55.17,123-123.22S272.4,74.08,204.48,74.08Z"/><path d="M204.48,219.67a22.36,22.36,0,1,1,22.31-22.36A22.36,22.36,0,0,1,204.48,219.67Z"/><path d="M204.48,177.45a19.86,19.86,0,1,1-19.81,19.86,19.86,19.86,0,0,1,19.81-19.86m0-5a24.86,24.86,0,1,0,24.81,24.86,24.84,24.84,0,0,0-24.81-24.86Z"/><polygon points="200.99 127.55 197.1 120.8 200.99 114.04 208.76 114.04 212.65 120.8 208.76 127.55 200.99 127.55"/><path d="M207.32,116.54l2.45,4.25-2.45,4.26h-4.88L200,120.79l2.45-4.25h4.88m2.89-5H199.55l-5.33,9.25,5.33,9.26h10.66l5.33-9.26-5.33-9.25Z"/><polygon points="201 279.56 197.11 272.81 201 266.06 208.77 266.06 212.66 272.81 208.77 279.56 201 279.56"/><path d="M207.33,268.56l2.45,4.25-2.45,4.25h-4.89L200,272.81l2.44-4.25h4.89m2.89-5H199.55l-5.33,9.25,5.33,9.25h10.67l5.33-9.25-5.33-9.25Z"/><polygon points="125.02 207.43 121.13 200.68 125.02 193.93 132.79 193.93 136.68 200.68 132.79 207.43 125.02 207.43"/><path d="M131.35,196.43l2.45,4.25-2.45,4.25h-4.89L124,200.68l2.45-4.25h4.89m2.89-5H123.57l-5.33,9.25,5.33,9.25h10.67l5.33-9.25-5.33-9.25Z"/><polygon points="278.01 201.86 274.13 195.11 278.01 188.36 285.79 188.36 289.68 195.11 285.79 201.86 278.01 201.86"/><path d="M284.34,190.86l2.45,4.25-2.45,4.25h-4.88L277,195.11l2.45-4.25h4.88m2.89-5H276.57l-5.33,9.25,5.33,9.25h10.66l5.33-9.25-5.33-9.25Z"/><polygon points="255.54 149.54 251.65 142.79 255.54 136.04 263.31 136.04 267.2 142.79 263.31 149.54 255.54 149.54"/><path d="M261.86,138.54l2.45,4.25L261.86,147H257l-2.45-4.25,2.45-4.25h4.88m2.89-5H254.09l-5.33,9.25,5.33,9.25h10.66l5.33-9.25-5.33-9.25Z"/><polygon points="150.79 147.89 146.9 141.14 150.79 134.39 158.56 134.39 162.45 141.14 158.56 147.89 150.79 147.89"/><path d="M157.12,136.89l2.45,4.25-2.45,4.25h-4.88l-2.45-4.25,2.45-4.25h4.88m2.89-5H149.35L144,141.14l5.33,9.25H160l5.33-9.25L160,131.89Z"/><polygon points="146.52 256.69 142.63 249.94 146.52 243.19 154.29 243.19 158.19 249.94 154.29 256.69 146.52 256.69"/><path d="M152.85,245.69l2.45,4.25-2.45,4.25H148l-2.45-4.25,2.45-4.25h4.88m2.89-5H145.08l-5.33,9.25,5.33,9.25h10.66l5.33-9.25-5.33-9.25Z"/><polygon points="255.95 255.94 252.06 249.19 255.95 242.44 263.73 242.44 267.62 249.19 263.73 255.94 255.95 255.94"/><path d="M262.28,244.94l2.45,4.25-2.45,4.25H257.4L255,249.19l2.45-4.25h4.88m2.89-5H254.51l-5.33,9.25,5.33,9.25h10.66l5.33-9.25-5.33-9.25Z"/><line class="cls-3" x1="195.22" y1="174.25" x2="158.04" y2="86.4"/><line class="cls-3" x1="214.88" y1="219.87" x2="248.79" y2="308.16"/><line class="cls-3" x1="226.48" y1="185.83" x2="314.08" y2="149.86"/><line class="cls-3" x1="180.73" y1="204.5" x2="94.71" y2="246.67"/><line class="cls-3" x1="182.47" y1="185.83" x2="97.33" y2="145.93"/><line class="cls-3" x1="213.73" y1="174.25" x2="256.63" y2="88.37"/><line class="cls-3" x1="228.23" y1="204.5" x2="314.08" y2="242.74"/><line class="cls-3" x1="194.07" y1="219.87" x2="160" y2="308.16"/></svg>